<svg class="icon" style="width: 5em;height: 1em;vertical-align: middle;fill: currentColor;overflow: hidden;" viewBox="0 0 5120 1024" version="1.1" xmlns="http://www.w3.org/2000/svg" p-id="9017"><path d="M1753.9072 333.9008C1753.4976 220.1344 1661.0304 128 1546.9056 128H1221.7344l30.0032 118.0416 279.04 60.544a59.0336 59.0336 0 0 1 45.696 55.0144c0.1536 0.6912 0.1536 299.4176 0 300.1088a59.0336 59.0336 0 0 1-45.6704 55.0144l-279.0656 60.544-30.0032 118.1696h325.1712c113.9968 0 206.592-92.1344 207.0016-205.8752V333.9008zM735.2576 716.9792a59.0336 59.0336 0 0 1-45.6704-54.9888c-0.1536-0.8448-0.1536-299.4176 0-300.1088a59.0336 59.0336 0 0 1 45.6704-55.0144l279.04-60.544 30.0032-118.0416H719.0016c-113.9712 0-206.592 92.0064-207.0016 205.8752v355.9424C512.4096 803.8656 605.0304 896 719.0016 896h325.1712l-30.0032-118.1952-278.912-60.8256z m278.912-220.0064h237.4144v29.5168h-237.4144v-29.5168z" fill="#FF6A00" p-id="9018"></path><path d="M2581.4016 777.088h115.6096V258.6624h-115.6096v518.4256z m204.928 0.256h114.944V409.0368h-114.944v368.3584z m-5.5808-472.0128c0-53.2224 11.0592-57.344 63.0272-57.344 52.6336 0 63.0016 4.1216 63.0016 57.3184 0 52.5568-10.3936 58.6752-63.0016 58.6752-51.968 0-63.0272-6.144-63.0272-58.6752v0.0256z m465.8176 287.7184c0-64.1536-9.7024-108.4672-70.6304-108.4672s-75.4688 38.8864-75.4688 108.4672c0 66.2016 14.5152 107.1104 75.4688 107.1104 63.0272 0 70.6304-47.104 70.6304-107.1104m117.0432 0c0 107.1104-27.7248 191.0016-147.5584 191.0016-70.5792 0-98.2528-21.12-112.128-53.888l-6.912 47.0528h-105.2672V258.816h114.9184v186.88c15.232-21.8368 45.696-43.6736 109.3888-43.6736 119.808 0 147.5328 73.0112 147.5328 191.0272m293.632 72.192v-36.864h-65.792c-45.696 0-63.0272 7.4752-63.0272 37.5296 0 23.8592 15.9232 32.7168 48.4864 32.7168 40.1408 0 69.248-14.336 80.3072-33.408m114.2528-141.2096v253.0816h-103.168l-9.728-38.912c-14.5152 23.2192-51.2 45.7216-114.9184 45.7216-80.9984 0-127.3856-36.1728-127.3856-113.2032 0-85.2736 51.2256-115.968 155.0848-115.968h85.8624v-2.048c0-43.6736-13.1584-55.296-75.4432-55.296-27.0336 0-68.7104 2.0736-93.6192 6.1952v-94.848c28.3648-4.1216 81.8176-6.144 108.1344-6.144 128.1024 0 175.1808 40.2432 175.1808 121.4208m350.9248 68.9152c0-64.128-9.728-108.4672-70.6304-108.4672-60.928 0-75.4432 38.8608-75.4432 108.4672 0 66.176 14.5152 107.0848 75.4432 107.0848 63.0272 0 70.6304-47.104 70.6304-107.0848m116.992 0c0 107.0848-27.648 190.976-147.456 190.976-70.6304 0-98.304-21.12-112.1792-53.8624l-6.912 47.0528h-105.2416v-518.4h114.9184v186.88c15.2064-21.8112 45.7216-43.648 109.4144-43.648 119.808 0 147.456 73.0112 147.456 191.0016m-1910.912-41.5488l-56.1408-179.456h-8.2944l-57.4208 179.456h121.856z m33.2288 105.728h-188.3648l-38.0928 119.1424h-125.312l177.9712-516.7616h162.688l176.5632 516.7616h-128.0768l-37.376-119.1424z m2170.112 8.1152v-36.8384h-65.7664c-45.6448 0-62.976 7.4752-62.976 37.5552 0 23.808 15.9232 32.6912 48.4864 32.6912 40.1664 0 69.2224-14.336 80.2816-33.408m114.2784-141.2096v253.0816h-103.168l-9.728-38.912c-14.5408 23.2192-51.2 45.7728-114.944 45.7728-80.9984 0-127.3856-36.1728-127.3856-113.2544 0-85.2736 51.2512-115.968 155.136-115.968h85.8112v-2.048c0-43.648-13.1584-55.296-75.4432-55.296-27.008 0-68.736 2.0736-93.6448 6.1952v-94.848c28.416-4.1216 81.8944-6.144 108.16-6.144 128.128 0 175.2064 40.2432 175.2064 121.4208" fill="#FF6600" p-id="9019"></path></svg>